# xmcd
#
# Track frame offsets:
#	150
#	15535
#	34512
#	50287
#	69459
#	87904
#	103909
#	121016
#	144396
#	163561
#	178159
#	194102
#	214166
#	232066
#	252131
#	279188
#
# Disc length: 3734 seconds
#
# Revision: 0
# Processed by: cddbd v1.5.2PL0 Copyright (c) Steve Scherf et al.
# Submitted via: audiograbber 1.83.01
#
DISCID=dd0e9410
DTITLE=8000 Book - SC8798
DYEAR=1900
DGENRE=
TTITLE0=Byrd, Tracy - Ten rounds with Jose Cuervo
TTITLE1=Jackson, Alan - Drive
TTITLE2=Paisley, Brad - I'm gonna Miss her
TTITLE3=Chesney, Kenny - Young
TTITLE4=Diamond Rio - Beautiful Mess
TTITLE5=Chesney, Kenny - Good Stuff
TTITLE6=Strait, George - Living and living well
TTITLE7=Jackson, Alan - Where were you
TTITLE8=Cagle, Chris - I breathe in, I breathe out
TTITLE9=Keith, Toby - I wanna talk about me
TTITLE10=Keith, Toby - My list
TTITLE11=Strait, George - Run
TTITLE12=Rascall Flats - I'm movin on
TTITLE13=McGraw, Tim - Cowboy in me
TTITLE14=Azar, Steve - I don't have to be me
TTITLE15=Data - Data Track
EXTD=
EXTT0=
EXTT1=
EXTT2=
EXTT3=
EXTT4=
EXTT5=
EXTT6=
EXTT7=
EXTT8=
EXTT9=
EXTT10=
EXTT11=
EXTT12=
EXTT13=
EXTT14=
EXTT15=
PLAYORDER=
